<svg width="21" height="21" viewBox="0 0 21 21" fill="none" xmlns="http://www.w3.org/2000/svg">
<g clip-path="url(#clip0_96_200)">
<path d="M10.9315 20.2135H9.6986C9.65714 20.199 9.61451 20.1882 9.57121 20.1812C8.73771 20.1292 7.91575 19.9568 7.13011 19.6694C3.54792 18.3241 1.37326 15.7526 0.606136 11.955C0.53165 11.5898 0.503396 11.211 0.452026 10.839V9.58695C0.463328 9.53061 0.476169 9.47427 0.486443 9.4174C0.598943 8.77884 0.660074 8.12567 0.830622 7.50327C2.55408 1.22197 9.67291 -1.71679 15.2584 1.57099C17.8911 3.12044 19.4707 5.46602 20.0296 8.50963C20.0948 8.86648 20.1293 9.22855 20.1781 9.58852V10.8004C20.1673 10.863 20.1539 10.9251 20.1452 10.9882C20.0938 11.3806 20.0578 11.7771 19.9839 12.1652C19.2133 16.1912 16.0032 19.3715 12.0133 20.0596C11.6543 20.1222 11.2911 20.1629 10.9315 20.2135ZM8.81247 8.46008V15.4697H10.9366V15.2313C10.9366 14.1357 10.9335 13.0443 10.9366 11.9513C10.9366 11.56 10.9685 11.1688 11.1457 10.8109C11.3769 10.3413 11.8315 10.1327 12.4525 10.213C12.8861 10.2652 13.181 10.5589 13.2745 11.0675C13.3228 11.3296 13.3479 11.5955 13.3495 11.8621C13.3577 12.9942 13.3536 14.1268 13.3541 15.2589V15.4676H15.4962C15.4998 15.4034 15.506 15.3528 15.506 15.3017C15.506 14.0496 15.5193 12.8027 15.4983 11.5533C15.4918 11.0529 15.4416 10.5541 15.3483 10.0627C15.1875 9.24002 14.7359 8.62806 13.9017 8.40791C13.5543 8.31652 13.1961 8.27439 12.8373 8.2827C12.0339 8.30252 11.3743 8.63223 10.9274 9.33706C10.9027 9.36308 10.8755 9.38651 10.8462 9.40697V8.46112L8.81247 8.46008ZM7.43473 15.4686V8.46634H5.30905V15.4686H7.43473ZM6.36264 7.48658C6.61 7.48657 6.85178 7.412 7.05736 7.2723C7.26294 7.13261 7.42306 6.93409 7.51744 6.70188C7.61181 6.46968 7.63619 6.21425 7.58748 5.96796C7.53878 5.72167 7.41917 5.4956 7.24384 5.31841C7.0685 5.14122 6.84532 5.02088 6.60257 4.97263C6.35982 4.92439 6.10844 4.95041 5.88026 5.0474C5.65209 5.14439 5.45741 5.30799 5.32087 5.51746C5.18434 5.72693 5.11211 5.97285 5.11333 6.22406C5.11536 6.55944 5.2478 6.88042 5.4818 7.11709C5.7158 7.35376 6.0324 7.48694 6.36264 7.48762V7.48658Z" fill="white"/>
</g>
<defs>
<clipPath id="clip0_96_200">
<rect width="19.726" height="20" fill="white" transform="translate(0.452026 0.213745)"/>
</clipPath>
</defs>
</svg>
