<svg width="20" height="21" viewBox="0 0 20 21" fill="none" xmlns="http://www.w3.org/2000/svg">
<g clip-path="url(#clip0_96_203)">
<path d="M10.0378 20.2136C4.58936 20.2136 0.171661 15.7235 0.177985 10.1955C0.184309 4.68235 4.61149 0.205621 10.0531 0.213634C15.4947 0.221647 19.9077 4.70105 19.904 10.2206C19.9003 15.7401 15.4795 20.2152 10.0378 20.2136ZM16.1155 10.2238H16.1334C16.1334 9.47588 16.1382 8.72798 16.1308 7.98435C16.1325 7.69101 16.114 7.3979 16.0755 7.10716C15.8858 5.82771 15.2618 4.8736 14.0387 4.3896C13.5339 4.1949 12.9978 4.0969 12.4577 4.10059C10.9119 4.0949 9.36716 4.0949 7.82345 4.10059C7.49506 4.09954 7.16712 4.12509 6.84274 4.17699C5.60011 4.38693 4.67895 5.03173 4.21836 6.25776C4.03588 6.759 3.94533 7.28983 3.95118 7.82408C3.95118 9.37652 3.94802 10.9295 3.95118 12.4825C3.94942 12.7684 3.9688 13.0542 4.00915 13.3372C4.19096 14.5242 4.75167 15.4458 5.86308 15.9586C6.40564 16.2027 6.99325 16.3269 7.58684 16.3229C9.22365 16.3326 10.8603 16.3326 12.4967 16.3229C13.1323 16.3187 13.7525 16.1979 14.327 15.9062C15.5063 15.3079 16.0259 14.2699 16.1045 12.9985C16.1614 12.0775 16.1155 11.1485 16.1155 10.2222V10.2238Z" fill="white"/>
<path d="M16.1156 10.2223C16.1156 11.1487 16.1615 12.0777 16.1046 13.0003C16.026 14.2717 15.5064 15.3097 14.327 15.908C13.7526 16.1997 13.1324 16.3204 12.4968 16.3247C10.8604 16.3361 9.22373 16.3361 7.58692 16.3247C6.99334 16.3287 6.40572 16.2045 5.86316 15.9604C4.75176 15.4475 4.19105 14.526 4.00924 13.339C3.96889 13.0559 3.94951 12.7702 3.95127 12.4842C3.946 10.9312 3.94811 9.37827 3.95127 7.82584C3.94535 7.29141 4.0359 6.76039 4.21845 6.25898C4.67903 5.03028 5.6002 4.38923 6.84282 4.17821C7.16646 4.12589 7.4937 4.09981 7.82143 4.10021C9.36725 4.09273 10.912 4.09273 12.4557 4.10021C12.9958 4.09652 13.5319 4.19452 14.0367 4.38922C15.2598 4.87322 15.8811 5.82734 16.0735 7.10679C16.1125 7.39695 16.1315 7.68952 16.1304 7.98237C16.1378 8.73027 16.133 9.47817 16.133 10.2218L16.1156 10.2223ZM10.0458 5.25412V5.23382C9.88773 5.23382 9.72964 5.23382 9.57154 5.23382C8.77 5.25145 7.96635 5.23756 7.16797 5.29846C6.24575 5.36898 5.56173 5.83749 5.25661 6.751C5.14248 7.09776 5.08186 7.46032 5.0769 7.82584C5.05741 9.36545 5.06689 10.9056 5.07005 12.4457C5.07084 12.6521 5.08298 12.8583 5.10641 13.0633C5.23921 14.2423 6.01757 15.0399 7.17798 15.1254C7.93684 15.1788 8.7015 15.1852 9.46351 15.1831C10.6134 15.1793 11.7654 15.1831 12.9126 15.1206C13.8359 15.0672 14.5199 14.5831 14.8235 13.6707C14.9396 13.3105 15 12.9342 15.0026 12.5553C15.0221 11.0226 15.0126 9.48886 15.0095 7.95565C15.0089 7.73581 14.9952 7.51619 14.9684 7.29803C14.8451 6.2921 14.2195 5.57679 13.2515 5.35295C12.9886 5.29327 12.7203 5.2614 12.451 5.25786C11.6489 5.24878 10.8479 5.25626 10.0458 5.25626V5.25412Z" fill="white"/>
<path d="M10.0285 13.464C9.60541 13.4634 9.18667 13.3777 8.79652 13.2119C8.40636 13.046 8.05254 12.8034 7.75556 12.4979C7.45857 12.1925 7.22433 11.8304 7.06639 11.4325C6.90846 11.0347 6.82997 10.609 6.83548 10.1801C6.83861 9.75135 6.92563 9.32744 7.09151 8.93298C7.25738 8.53852 7.49882 8.18133 7.80182 7.88212C8.10482 7.58291 8.46338 7.34761 8.85671 7.18986C9.25005 7.0321 9.67036 6.95503 10.0933 6.9631C10.9409 6.97534 11.749 7.32801 12.3403 7.94367C12.9317 8.55934 13.2578 9.3877 13.2473 10.2469C13.2409 11.1061 12.8982 11.9276 12.2947 12.5308C11.6911 13.134 10.876 13.4697 10.0285 13.464ZM10.068 8.11754C9.79632 8.11323 9.52649 8.16335 9.27397 8.26501C9.02146 8.36668 8.79123 8.51789 8.5965 8.70998C8.40178 8.90207 8.24639 9.13124 8.13925 9.38436C8.03212 9.63747 7.97534 9.90954 7.97218 10.185C7.94741 11.3357 8.86067 12.2866 10.0121 12.3095C11.1509 12.3325 12.0826 11.4131 12.1074 10.2421C12.1119 9.96664 12.0627 9.69298 11.9625 9.43687C11.8623 9.18076 11.7132 8.94727 11.5236 8.74981C11.3341 8.55236 11.1079 8.39484 10.8581 8.28633C10.6083 8.17782 10.3398 8.12046 10.068 8.11754Z" fill="white"/>
<path d="M13.2773 7.62603C13.1936 7.62866 13.1102 7.6144 13.0319 7.58406C12.9536 7.55373 12.8821 7.50793 12.8215 7.44933C12.7608 7.39073 12.7122 7.32049 12.6786 7.2427C12.645 7.16491 12.6269 7.08112 12.6255 6.99619C12.6232 6.90981 12.6381 6.82384 12.6691 6.74337C12.7002 6.66289 12.7468 6.58954 12.8063 6.52765C12.8658 6.46575 12.9369 6.41656 13.0155 6.38299C13.094 6.34941 13.1784 6.33213 13.2636 6.33216C13.4326 6.3313 13.595 6.39823 13.7155 6.51833C13.8359 6.63843 13.9046 6.80196 13.9066 6.97322C13.9084 7.14434 13.8432 7.30919 13.7252 7.43159C13.6072 7.55398 13.4461 7.62392 13.2773 7.62603Z" fill="white"/>
<path d="M10.0459 5.25618C10.8479 5.25618 11.6505 5.24869 12.4521 5.26045C12.7214 5.26399 12.9897 5.29586 13.2526 5.35554C14.2206 5.57938 14.8461 6.29469 14.9695 7.30062C14.9963 7.51878 15.01 7.73839 15.0106 7.95824C15.0137 9.49144 15.0232 11.0252 15.0037 12.5578C15.0011 12.9368 14.9407 13.3131 14.8245 13.6733C14.521 14.5857 13.837 15.0713 12.9137 15.1232C11.7665 15.1878 10.6145 15.1819 9.4646 15.1857C8.70258 15.1857 7.93635 15.1857 7.17907 15.128C6.01971 15.0425 5.2403 14.2449 5.1075 13.0659C5.08407 12.8609 5.07193 12.6547 5.07114 12.4483C5.06798 10.9082 5.05849 9.36804 5.07799 7.82843C5.08295 7.4629 5.14356 7.10035 5.25769 6.75358C5.56281 5.84007 6.24684 5.37156 7.16906 5.30105C7.96744 5.24015 8.77109 5.25404 9.57263 5.23641C9.73072 5.2332 9.88882 5.23641 10.0469 5.23641L10.0459 5.25618ZM10.0285 13.4639C10.876 13.4696 11.6911 13.1339 12.2947 12.5307C12.8982 11.9275 13.2409 11.106 13.2473 10.2468C13.2578 9.3876 12.9317 8.55924 12.3403 7.94357C11.749 7.32791 10.9409 6.97524 10.0933 6.963C9.67036 6.95493 9.25005 7.032 8.85672 7.18976C8.46338 7.34751 8.10483 7.58281 7.80182 7.88202C7.49882 8.18123 7.25739 8.53842 7.09151 8.93288C6.92563 9.32734 6.83861 9.75125 6.83548 10.18C6.82997 10.6089 6.90846 11.0346 7.06639 11.4324C7.22433 11.8303 7.45858 12.1924 7.75556 12.4978C8.05254 12.8033 8.40636 13.0459 8.79652 13.2118C9.18667 13.3776 9.60541 13.4633 10.0285 13.4639ZM13.2773 7.62596C13.4461 7.62385 13.6072 7.55391 13.7252 7.43151C13.8431 7.30912 13.9084 7.14426 13.9065 6.97315C13.9046 6.80189 13.8359 6.63836 13.7154 6.51826C13.595 6.39815 13.4326 6.33123 13.2636 6.33209C13.1784 6.33206 13.094 6.34934 13.0154 6.38291C12.9369 6.41649 12.8658 6.46568 12.8063 6.52757C12.7468 6.58947 12.7002 6.66282 12.6691 6.74329C12.638 6.82377 12.6232 6.90974 12.6254 6.99612C12.6269 7.08105 12.6449 7.16484 12.6786 7.24263C12.7122 7.32042 12.7608 7.39065 12.8214 7.44925C12.8821 7.50786 12.9536 7.55365 13.0319 7.58399C13.1101 7.61432 13.1936 7.62859 13.2773 7.62596Z" fill="#2F383B"/>
<path d="M10.068 8.11743C10.34 8.1202 10.6088 8.17752 10.8588 8.28607C11.1089 8.39461 11.3352 8.55225 11.5249 8.74989C11.7146 8.94753 11.8638 9.18126 11.964 9.43763C12.0641 9.69399 12.1132 9.96791 12.1085 10.2436C12.0837 11.4146 11.152 12.334 10.0132 12.311C8.86176 12.2881 7.9485 11.3371 7.97327 10.1864C7.97622 9.91099 8.03281 9.63883 8.13979 9.3856C8.24677 9.13238 8.40204 8.90306 8.59667 8.71082C8.7913 8.51858 9.02147 8.36719 9.27397 8.26536C9.52647 8.16353 9.79631 8.11326 10.068 8.11743Z" fill="#2F383B"/>
</g>
<defs>
<clipPath id="clip0_96_203">
<rect width="19.726" height="20" fill="white" transform="translate(0.178101 0.213745)"/>
</clipPath>
</defs>
</svg>
