<svg width="20" height="21" viewBox="0 0 20 21" fill="none" xmlns="http://www.w3.org/2000/svg">
<g clip-path="url(#clip0_96_193)">
<path d="M9.24516 0.213745H10.4773C10.8071 0.257838 11.1406 0.290948 11.4667 0.346065C13.482 0.689626 15.3431 1.65703 16.7946 3.11553C18.2461 4.57404 19.2169 6.45216 19.5739 8.49228C19.6391 8.85972 19.6753 9.22717 19.7261 9.59461V10.8439C19.6971 11.0827 19.6717 11.3216 19.6391 11.5568C19.3724 13.6872 18.415 15.6674 16.9174 17.186C14.3805 19.7581 11.3326 20.6951 7.82812 19.9933C5.5047 19.5395 3.43472 18.2159 2.02955 16.2858C1.00235 14.9219 0.338696 13.3129 0.102424 11.6137C-0.133848 9.91443 0.0651953 8.18212 0.680459 6.58347C1.29572 4.98482 2.3065 3.57369 3.61545 2.48578C4.9244 1.39787 6.48749 0.669778 8.1543 0.371721C8.52033 0.320279 8.88637 0.265187 9.24516 0.213745ZM10.6948 8.51435V7.77946C10.6948 6.77633 10.6948 6.76163 11.6914 6.76163H12.467V4.79209C12.4465 4.78978 12.4258 4.78978 12.4054 4.79209C11.6805 4.79209 10.9775 4.75905 10.2671 4.82151C9.86139 4.8392 9.47135 4.98561 9.15208 5.24009C8.83281 5.49457 8.60042 5.84431 8.48769 6.23989C8.39 6.58823 8.33404 6.94721 8.32099 7.30912C8.29562 7.70963 8.32099 8.11386 8.32099 8.54009H7.20841V10.5977H8.32825V16.3739H10.7093V10.5793H12.3111L12.5141 8.53642L10.6948 8.51435Z" fill="white"/>
<path d="M10.7092 8.5144H12.5213L12.3184 10.5574H10.7165V16.3519H8.33546V10.5757H7.21558V8.51807H8.3282C8.3282 8.09184 8.31008 7.68761 8.3282 7.2871C8.34125 6.92519 8.39721 6.56622 8.4949 6.21787C8.60763 5.82229 8.84002 5.47255 9.15929 5.21807C9.47856 4.96359 9.8686 4.81718 10.2743 4.79949C10.9992 4.73703 11.6986 4.77383 12.4126 4.77016C12.4331 4.76785 12.4537 4.76785 12.4742 4.77016V6.73961H11.6986C10.7201 6.73961 10.702 6.73962 10.702 7.75744L10.7092 8.5144Z" fill="#2F383B"/>
</g>
<defs>
<clipPath id="clip0_96_193">
<rect width="19.726" height="20" fill="white" transform="translate(0 0.213745)"/>
</clipPath>
</defs>
</svg>
