<svg width="20" height="21" viewBox="0 0 20 21" fill="none" xmlns="http://www.w3.org/2000/svg">
<g clip-path="url(#clip0_96_231)">
<path d="M0.273926 11.3401V10.0923C0.288694 9.96252 0.30591 9.84272 0.320679 9.70796C0.541965 7.5366 1.45659 5.49791 2.92545 3.9019C4.3943 2.30588 6.33703 1.23987 8.45823 0.865949C8.81022 0.806054 9.16712 0.766099 9.52156 0.716187H10.7523C10.8015 0.716187 10.8508 0.743609 10.9 0.748601C12.4168 0.850284 13.8865 1.32389 15.1829 2.12869C16.4094 2.85765 17.4636 3.85003 18.2716 5.03608C19.0795 6.22213 19.6215 7.5731 19.8596 8.99418C19.9261 9.35605 19.9606 9.72544 20.0098 10.0923V11.3401C19.9827 11.5897 19.9556 11.8142 19.9236 12.0538C19.6393 14.1531 18.7062 16.107 17.2584 17.6351C15.8105 19.1631 13.9223 20.1867 11.8649 20.559C11.5006 20.6263 11.1264 20.6637 10.7646 20.7137H9.53388C9.28774 20.6837 9.04161 20.6588 8.81023 20.6239C6.74351 20.3322 4.82083 19.3849 3.31753 17.9177C1.81424 16.4504 0.807441 14.5385 0.441317 12.4557C0.36009 12.0863 0.323155 11.712 0.273926 11.3401ZM10.1369 17.2173C10.2108 17.1349 10.2748 17.0726 10.3289 17.0027C11.0674 16.1043 11.8058 15.2208 12.5098 14.2999C13.3086 13.2801 13.9891 12.1706 14.538 10.9932C14.89 10.2121 15.1238 9.41099 14.986 8.53752C14.6783 6.59592 13.6445 5.20583 11.8255 4.52702C10.0065 3.84821 8.33271 4.20012 6.87308 5.48537C5.59559 6.6109 4.65777 8.81201 5.73343 11.0032C6.2096 11.9677 6.75934 12.8931 7.37765 13.7709C8.23091 14.9728 9.15221 16.1235 10.1369 17.2173Z" fill="white"/>
<path d="M10.1197 17.15C9.1344 16.0568 8.21307 14.906 7.36045 13.7035C6.74213 12.8258 6.19236 11.9004 5.71619 10.9358C4.63316 8.74467 5.57835 6.54355 6.85584 5.41802C8.31548 4.13277 9.99911 3.78586 11.8083 4.45968C13.6174 5.1335 14.6611 6.52858 14.9688 8.47018C15.1066 9.34365 14.8728 10.1472 14.5208 10.9258C13.9719 12.1032 13.2914 13.2127 12.4926 14.2326C11.791 15.1534 11.0428 16.0369 10.3117 16.9353C10.26 17.0052 10.196 17.0701 10.1197 17.15ZM8.39671 9.32366C8.39331 9.69504 8.49867 10.0591 8.69943 10.3697C8.9002 10.6803 9.18736 10.9236 9.52455 11.0687C9.86174 11.2137 10.2338 11.2541 10.5937 11.1847C10.9535 11.1153 11.2849 10.9392 11.546 10.6787C11.8071 10.4182 11.986 10.085 12.0602 9.72135C12.1345 9.35766 12.1006 8.97981 11.9629 8.63566C11.8252 8.29151 11.5899 7.99651 11.2868 7.78802C10.9836 7.57953 10.6263 7.46692 10.26 7.46443C9.77013 7.46176 9.29915 7.6558 8.94999 8.0042C8.60084 8.35259 8.40191 8.827 8.39671 9.32366Z" fill="black"/>
<path d="M8.28594 9.22388C8.28594 7.99852 9.18926 7.01273 10.2895 7.01772C11.3898 7.02271 12.2759 8.03346 12.2587 9.27878C12.2415 10.5241 11.3455 11.4824 10.2452 11.4724C9.14498 11.4625 8.28102 10.4467 8.28594 9.22388Z" fill="white"/>
</g>
<defs>
<clipPath id="clip0_96_231">
<rect width="19.726" height="20" fill="white" transform="translate(0.273926 0.713745)"/>
</clipPath>
</defs>
</svg>
