<svg width="20" height="21" viewBox="0 0 20 21" fill="none" xmlns="http://www.w3.org/2000/svg">
<g clip-path="url(#clip0_96_224)">
<path d="M0.27388 10.8442V9.59476C0.285992 9.53164 0.298972 9.4685 0.308489 9.40537C0.380299 8.93014 0.41664 8.44702 0.529113 7.98231C1.27663 4.89244 3.06667 2.62677 5.87417 1.21511C7.73343 0.280429 9.71382 0.0103715 11.7574 0.362848C14.3166 0.801253 16.4034 2.08314 17.9763 4.17258C19.6201 6.36022 20.2569 8.84422 19.9073 11.5685C19.6618 13.5381 18.8224 15.383 17.5039 16.8512C16.0388 18.5441 14.0448 19.676 11.8551 20.0577C11.4909 20.1252 11.1215 20.1629 10.7538 20.2138H9.52089C9.28037 20.1831 9.03899 20.1577 8.79933 20.1261C6.87301 19.8647 5.0685 19.0232 3.61952 17.7105C1.93509 16.224 0.807867 14.1945 0.427884 11.9639C0.362131 11.5913 0.324925 11.216 0.27388 10.8442ZM10.1239 14.7609C11.7966 14.7609 13.4722 14.7609 15.1506 14.7609C15.9838 14.7609 16.4933 14.2427 16.4942 13.3992V7.03799C16.4942 6.1945 15.9838 5.67806 15.1489 5.67806H5.13445C4.2883 5.67806 3.78131 6.19275 3.78131 7.04939C3.78131 9.15373 3.79602 11.2642 3.77353 13.3712C3.76487 14.1384 4.29955 14.782 5.15781 14.7688C6.81116 14.7425 8.46798 14.7609 10.1239 14.7609Z" fill="white"/>
<path d="M10.124 14.7608C8.46802 14.7608 6.8112 14.7424 5.15525 14.7687C4.29959 14.7819 3.76491 14.1383 3.77097 13.3711C3.79347 11.2668 3.77789 9.15628 3.77875 7.04931C3.77875 6.19267 4.28575 5.67798 5.13189 5.67798H15.1463C15.9812 5.67798 16.4908 6.19442 16.4917 7.03791V13.3992C16.4917 14.2426 15.9812 14.76 15.148 14.7608C13.4742 14.762 11.7995 14.762 10.124 14.7608ZM4.80226 7.23431V13.3518C4.80226 13.6876 4.84811 13.7332 5.18207 13.7332H15.0814C15.4275 13.7332 15.4725 13.6911 15.4725 13.3439V7.23431C15.3496 7.33164 15.2657 7.39828 15.1827 7.46579L10.5228 11.2141C10.2451 11.4377 10.0323 11.4377 9.75972 11.2194L6.53348 8.62318L4.80226 7.23431ZM14.4706 6.72051H5.85345C5.85864 6.7775 5.89325 6.79328 5.9218 6.81695C7.28532 7.91179 8.6471 9.00839 10.0072 10.1067C10.1205 10.1988 10.1802 10.1734 10.2832 10.0936C11.3416 9.23782 12.4017 8.3841 13.4635 7.53243L14.4706 6.72051Z" fill="white"/>
<path d="M4.80226 7.23438L6.53261 8.6741L9.75885 11.3606C10.0314 11.5869 10.2442 11.586 10.5219 11.3545C12.0758 10.0627 13.6291 8.77025 15.1818 7.47725L15.4716 7.23788V13.5509C15.4716 13.9104 15.4284 13.9534 15.0805 13.9534C11.7808 13.9534 8.48099 13.9534 5.18121 13.9534C4.84725 13.9534 4.80139 13.9069 4.80139 13.5588V7.23438H4.80226Z" fill="black"/>
<path d="M14.4706 6.71875L13.4635 7.53068C12.4028 8.3841 11.3427 9.23782 10.2831 10.0918C10.1845 10.1716 10.1205 10.197 10.0072 10.105C8.64883 9.0043 7.28704 7.9077 5.92179 6.8152C5.89324 6.79153 5.85863 6.77574 5.85344 6.71875H14.4706Z" fill="black"/>
</g>
<defs>
<clipPath id="clip0_96_224">
<rect width="19.726" height="20" fill="white" transform="translate(0.273926 0.213745)"/>
</clipPath>
</defs>
</svg>
