<svg width="20" height="21" viewBox="0 0 20 21" fill="none" xmlns="http://www.w3.org/2000/svg">
<g clip-path="url(#clip0_96_216)">
<path d="M10.1278 0.219076C4.63245 0.237007 0.232791 4.72387 0.275423 10.3172C0.31699 15.8651 4.79126 20.295 10.277 20.218C15.6902 20.1421 20.0121 15.6826 20.0004 10.1758C19.9887 4.66903 15.5432 0.196927 10.1278 0.219076Z" fill="white"/>
<path d="M10.1278 0.219042C15.5432 0.202166 19.9887 4.68165 20.0004 10.1758C20.0121 15.6699 15.6902 20.142 10.277 20.218C4.79126 20.295 0.31699 15.8651 0.275423 10.3171C0.232791 4.71857 4.63245 0.231699 10.1278 0.219042ZM13.2687 16.2258C13.3458 16.2059 13.4203 16.1768 13.4904 16.1393C14.3849 15.5764 15.1911 14.8867 15.8832 14.0921C16.1347 13.7988 16.1219 13.629 15.816 13.397C15.0117 12.7755 14.1398 12.2448 13.2165 11.8149C12.9127 11.6756 12.8147 11.7041 12.5855 11.9562C12.3351 12.2315 12.0921 12.5131 11.848 12.8C11.8206 12.8436 11.7774 12.875 11.7272 12.888C11.677 12.901 11.6237 12.8944 11.5783 12.8696C11.0891 12.6397 10.5701 12.4614 10.1171 12.1745C8.86941 11.3949 7.95108 10.1926 7.53359 8.79198C7.50863 8.7359 7.50367 8.67309 7.51956 8.61386C7.53544 8.55464 7.57121 8.50251 7.62098 8.46606C7.88531 8.23507 8.15389 8.00198 8.40542 7.76255C8.67933 7.50836 8.70386 7.41659 8.54931 7.07169C8.13106 6.16102 7.61849 5.29573 7.01987 4.48969C6.77793 4.1585 6.60847 4.13951 6.30471 4.40847C5.52165 5.1119 4.84725 5.92536 4.30311 6.82277C4.23666 6.94271 4.21336 7.08143 4.23703 7.21619C4.31026 7.63134 4.41031 8.04142 4.53653 8.44391C5.03214 9.90578 5.87626 11.1557 6.88132 12.2958C8.17948 13.764 9.67161 14.9759 11.4792 15.7491C12.0479 15.9957 12.6514 16.1547 13.2687 16.2205V16.2258ZM10.5648 5.03499C13.4062 5.35142 14.9484 6.9272 15.2543 9.78133H16.0462C16.0793 6.54644 13.289 4.12474 10.569 4.24815L10.5648 5.03499ZM13.9253 9.7866C13.9626 7.64969 11.9961 6.23318 10.568 6.40405V7.21408C11.2395 7.22504 11.8793 7.49843 12.3479 7.97456C12.8241 8.46105 13.0945 9.1093 13.1035 9.7866H13.9253Z" fill="white"/>
<path d="M13.2683 16.2205C12.6518 16.1509 12.0498 15.9884 11.483 15.7385C9.67117 14.9654 8.17903 13.7535 6.88514 12.2853C5.87582 11.1451 5.03169 9.89524 4.54036 8.43337C4.41413 8.03088 4.3141 7.6208 4.24087 7.20565C4.21719 7.07089 4.24049 6.93217 4.30695 6.81223C4.85109 5.91482 5.52549 5.10136 6.30854 4.39793C6.6123 4.12897 6.78176 4.14796 7.0237 4.47915C7.62233 5.28519 8.13488 6.15048 8.55314 7.06115C8.70768 7.40605 8.68317 7.49782 8.40925 7.75201C8.15239 7.99144 7.88914 8.22453 7.62482 8.45552C7.57504 8.49197 7.53927 8.54408 7.52339 8.60331C7.50751 8.66254 7.51245 8.72536 7.53741 8.78144C7.9549 10.182 8.87325 11.3844 10.121 12.164C10.5739 12.4509 11.093 12.6291 11.5822 12.8591C11.6276 12.8838 11.6809 12.8904 11.731 12.8775C11.7812 12.8645 11.8244 12.833 11.8518 12.7895C12.0959 12.5068 12.3389 12.2252 12.5894 11.9457C12.8185 11.6936 12.9166 11.6651 13.2203 11.8043C14.1437 12.2343 15.0156 12.7649 15.8198 13.3864C16.1257 13.6185 16.1396 13.7883 15.887 14.0815C15.1949 14.8761 14.3887 15.5659 13.4942 16.1288C13.423 16.1684 13.3471 16.1992 13.2683 16.2205Z" fill="#2F383B"/>
<path d="M10.5643 5.02975V4.24292C13.2843 4.11951 16.0746 6.54119 16.0415 9.77608H15.2496C14.948 6.92195 13.4058 5.34512 10.5643 5.02975Z" fill="#2F383B"/>
<path d="M13.9248 9.78129H13.1031C13.094 9.10399 12.8237 8.45573 12.3474 7.96924C11.8789 7.49311 11.239 7.21973 10.5675 7.20877V6.39873C11.9957 6.23102 13.9621 7.64438 13.9248 9.78129Z" fill="#2F383B"/>
</g>
<defs>
<clipPath id="clip0_96_216">
<rect width="19.726" height="20" fill="white" transform="translate(0.273926 0.213745)"/>
</clipPath>
</defs>
</svg>
