<svg width="21" height="21" viewBox="0 0 21 21" fill="none" xmlns="http://www.w3.org/2000/svg">
<g clip-path="url(#clip0_96_196)">
<path d="M11.1679 20.2135H10.0891C9.80929 20.1818 9.52849 20.1568 9.24963 20.1157C7.86008 19.9269 6.52791 19.433 5.34601 18.6685C5.29299 18.6291 5.23112 18.6038 5.16601 18.5947C5.1009 18.5857 5.03459 18.5932 4.97307 18.6167C3.84651 18.9889 2.71706 19.3503 1.58858 19.7181C1.52683 19.7381 1.46411 19.7567 1.3763 19.7836C1.77047 18.5946 2.14824 17.4433 2.53421 16.2949C2.58632 16.1404 2.58246 16.0249 2.48259 15.8846C1.66361 14.7065 1.11575 13.3573 0.879359 11.9361C0.808919 11.5219 0.775146 11.1008 0.724487 10.6831V9.62858C0.736549 9.55913 0.750058 9.49017 0.76019 9.42121C0.823393 8.98445 0.86006 8.54084 0.953176 8.11142C1.47327 5.69529 2.70549 3.72131 4.65368 2.2423C7.04525 0.427271 9.73451 -0.172355 12.6626 0.447326C15.0218 0.946691 16.9406 2.19877 18.4078 4.13215C19.9912 6.22009 20.6503 8.59709 20.4028 11.2137C20.2025 13.3261 19.3959 15.1935 18.0097 16.7894C16.4808 18.5501 14.5731 19.6452 12.2911 20.0561C11.9186 20.1255 11.5423 20.1627 11.1679 20.2135ZM13.7689 15.8494C14.0887 15.7872 14.3691 15.7672 14.6257 15.6782C16.0205 15.1935 16.4938 14.5112 16.5344 13.2053C16.5406 12.9975 16.4629 12.86 16.2782 12.771C15.5492 12.4194 14.825 12.0574 14.0931 11.7111C13.7047 11.5277 13.4833 11.5987 13.229 11.9459C13.036 12.2071 12.8503 12.4707 12.6524 12.7285C12.3581 13.1104 12.141 13.1642 11.6991 12.9818C10.0886 12.3166 8.88296 11.1795 7.97689 9.6951C7.75592 9.33366 7.76702 9.22655 8.04974 8.90277C8.22825 8.69833 8.41448 8.49976 8.58045 8.28603C8.73725 8.08501 8.88296 7.8654 8.77006 7.59053C8.43233 6.76298 8.08689 5.93691 7.73324 5.11572C7.68886 5.01301 7.58464 4.89074 7.4867 4.86628C6.96902 4.7357 6.42818 4.70684 5.99589 5.06192C5.03096 5.85572 4.7299 6.9239 4.91517 8.13783C5.04544 8.98787 5.44009 9.73276 5.91677 10.4366C6.68244 11.5683 7.5475 12.6091 8.579 13.5046C9.7263 14.5014 11.0584 15.1343 12.4932 15.5618C12.9217 15.6889 13.3655 15.7599 13.7689 15.8494Z" fill="white"/>
<path d="M13.769 15.8495C13.3657 15.76 12.9218 15.6891 12.4943 15.5615C11.0595 15.134 9.72739 14.5011 8.58009 13.5043C7.54858 12.6088 6.68353 11.5665 5.92027 10.4362C5.44359 9.73244 5.04894 8.98755 4.91867 8.1375C4.73341 6.92358 5.03639 5.85539 5.99939 5.0616C6.43361 4.70505 6.97252 4.7339 7.49021 4.86596C7.5867 4.89041 7.69236 5.01269 7.73674 5.1154C8.09039 5.93658 8.43342 6.76266 8.77356 7.59021C8.88646 7.86508 8.74075 8.08468 8.58395 8.2857C8.41702 8.49944 8.23079 8.69801 8.05324 8.90245C7.77052 9.22623 7.75942 9.33334 7.98039 9.69478C8.88646 11.1792 10.0921 12.3163 11.7026 12.9815C12.1445 13.1639 12.3616 13.1101 12.6559 12.7281C12.8538 12.4723 13.0419 12.2087 13.2325 11.9456C13.4868 11.5983 13.7082 11.5274 14.0966 11.7108C14.8285 12.0571 15.5527 12.419 16.2817 12.7707C16.4665 12.8597 16.5441 12.9971 16.5379 13.205C16.4973 14.5109 16.024 15.1932 14.6292 15.6779C14.3692 15.7674 14.0889 15.7874 13.769 15.8495Z" fill="#2F383B"/>
</g>
<defs>
<clipPath id="clip0_96_196">
<rect width="19.726" height="20" fill="white" transform="translate(0.726074 0.213745)"/>
</clipPath>
</defs>
</svg>
